<svg xmlns="http://www.w3.org/2000/svg" version="1.1" xmlns:xlink="http://www.w3.org/1999/xlink" width="512" height="512" x="0" y="0" viewBox="0 0 512 512" style="enable-background:new 0 0 512 512" xml:space="preserve" class=""><g><path d="M256 246.296c-64.182 0-116.398-52.216-116.398-116.398S191.818 13.5 256 13.5s116.398 52.216 116.398 116.398S320.182 246.296 256 246.296zM256 38.5c-50.397 0-91.398 41.001-91.398 91.398s41.001 91.398 91.398 91.398 91.398-41.001 91.398-91.398S306.397 38.5 256 38.5zm147.196 460H108.804c-31.754 0-57.588-25.834-57.588-57.588v-36.027c0-74.966 60.989-135.955 135.955-135.955h137.657c74.966 0 135.955 60.989 135.955 135.955v36.027c.001 31.754-25.833 57.588-57.587 57.588zM187.171 293.93c-61.181 0-110.955 49.774-110.955 110.955v36.027c0 17.969 14.619 32.588 32.588 32.588h294.392c17.969 0 32.588-14.619 32.588-32.588v-36.027c0-61.181-49.774-110.955-110.955-110.955z" fill="#000000" opacity="1" data-original="#000000" class=""></path></g></svg>